<?xml version="1.0" encoding="UTF-8" standalone="no"?>
<!-- Created with Inkscape (http://www.inkscape.org/) -->

<svg
   width="5080px"
   height="5080px"
   viewBox="0 0 5080 5080"
   version="1.1"
   id="svg1"
   xmlns:xlink="http://www.w3.org/1999/xlink"
   xmlns="http://www.w3.org/2000/svg"
   xmlns:svg="http://www.w3.org/2000/svg">
  <defs
     id="defs1">
    <linearGradient
       id="linearGradient39">
      <stop
         style="stop-color:#0b287d;stop-opacity:1;"
         offset="0.36956936"
         id="stop39" />
      <stop
         style="stop-color:#ef0000;stop-opacity:1;"
         offset="1"
         id="stop40" />
    </linearGradient>
    <linearGradient
       xlink:href="#linearGradient39"
       id="linearGradient40"
       x1="-3335.5327"
       y1="11246.867"
       x2="8857.0596"
       y2="-5259.71"
       gradientUnits="userSpaceOnUse" />
    <linearGradient
       xlink:href="#linearGradient39"
       id="linearGradient41"
       gradientUnits="userSpaceOnUse"
       x1="-3335.5327"
       y1="11246.867"
       x2="8857.0596"
       y2="-5259.71" />
  </defs>
  <path
     style="display:none;fill:url(#linearGradient41);fill-opacity:1;stroke-width:0.264583"
     id="path40"
     d="M 4741.3334,2540 C 4710.6808,4271.8723 4525.8724,4450.2526 2794,4419.6 1062.1277,4388.9474 883.74741,4204.139 914.40002,2472.2666 945.05264,740.39429 1129.861,562.01402 2861.7334,592.66663 4593.6057,623.31923 4771.986,808.12764 4741.3334,2540 Z"
     transform="matrix(1.6685305,-0.01437927,0.01437941,1.6685151,-2214.5852,-1601.0566)" />
  <path
     style="display:inline;fill:url(#linearGradient40);fill-opacity:1;stroke-width:0.264583"
     id="path38"
     d="M 4741.3334,2540 C 4710.6808,4271.8723 4525.8724,4450.2526 2794,4419.6 1062.1277,4388.9474 883.74741,4204.139 914.40002,2472.2666 945.05264,740.39429 1129.861,562.01402 2861.7334,592.66663 4593.6057,623.31923 4771.986,808.12764 4741.3334,2540 Z"
     transform="matrix(1.3265243,-0.01143189,0.011432,1.326512,-1240.0505,-752.28617)" />
  <g
     id="layer1">
    <text
       xml:space="preserve"
       style="font-style:normal;font-variant:normal;font-weight:900;font-stretch:normal;font-size:2672.02px;font-family:Barlow;-inkscape-font-specification:'Barlow Heavy';writing-mode:lr-tb;direction:ltr;fill:#ffffff;fill-opacity:1;stroke-width:0.400838"
       x="589.31293"
       y="3494.5032"
       id="text7"
       transform="scale(1.0010761,0.99892506)"><tspan
         id="tspan7"
         style="font-style:normal;font-variant:normal;font-weight:900;font-stretch:normal;font-size:2672.02px;font-family:Barlow;-inkscape-font-specification:'Barlow Heavy';fill:#ffffff;stroke-width:0.400838"
         x="589.31293"
         y="3494.5032">N</tspan></text>
    <text
       xml:space="preserve"
       style="font-style:normal;font-variant:normal;font-weight:900;font-stretch:normal;font-size:2672.02px;font-family:Barlow;-inkscape-font-specification:'Barlow Heavy';writing-mode:lr-tb;direction:ltr;fill:#ffffff;fill-opacity:1;stroke-width:0.400838"
       x="1650.1464"
       y="3494.5032"
       id="text7-0"
       transform="scale(1.0010761,0.99892506)"><tspan
         id="tspan7-4"
         style="font-style:normal;font-variant:normal;font-weight:900;font-stretch:normal;font-size:2672.02px;font-family:Barlow;-inkscape-font-specification:'Barlow Heavy';fill:#ffffff;stroke-width:0.400838"
         x="1650.1464"
         y="3494.5032">E</tspan><tspan
         style="font-style:normal;font-variant:normal;font-weight:900;font-stretch:normal;font-size:2672.02px;font-family:Barlow;-inkscape-font-specification:'Barlow Heavy';fill:#ffffff;stroke-width:0.400838"
         x="1650.1464"
         y="6834.5283"
         id="tspan8" /></text>
    <text
       xml:space="preserve"
       style="font-style:normal;font-variant:normal;font-weight:900;font-stretch:normal;font-size:2636.5px;font-family:Barlow;-inkscape-font-specification:'Barlow Heavy';writing-mode:lr-tb;direction:ltr;fill:#ffffff;fill-opacity:1;stroke-width:0.395496"
       x="2760.7136"
       y="3512.5437"
       id="text7-0-0"
       transform="scale(1.0144806,0.9857261)"><tspan
         id="tspan7-4-6"
         style="font-style:normal;font-variant:normal;font-weight:900;font-stretch:normal;font-size:2636.5px;font-family:Barlow;-inkscape-font-specification:'Barlow Heavy';fill:#ffffff;stroke-width:0.395496"
         x="2760.7136"
         y="3512.5437">O</tspan></text>
    <path
       id="text7-0-0-3"
       style="font-style:normal;font-variant:normal;font-weight:800;font-stretch:normal;font-size:2135.35px;font-family:Barlow;-inkscape-font-specification:'Barlow Ultra-Bold';writing-mode:lr-tb;direction:ltr;fill:#ffffff;fill-opacity:1;stroke-width:0.485213"
       d="m 3611.9156,1622.3459 z m -1.3565,0 h -683.466 c -13.0701,0 -24.8274,3.559 -35.281,10.6777 -7.8399,5.339 -11.759,12.4579 -11.759,21.3561 v 1804.5755 c 0,8.8983 3.9191,16.907 11.759,24.0255 10.4536,5.3389 22.2109,8.0085 35.281,8.0085 h 684.281 c 0,-0.015 4e-4,-0.031 0.018,-0.046 0,-4e-4 0,0 0,0 0,-0.012 0.018,-0.016 0.018,-0.03 0.042,-0.067 0.1021,-0.1012 0.1796,-0.1012 0.095,0 0.1888,0 0.2855,0 0.1653,1e-4 0.3288,4e-4 0.4954,0 h 0.7555 c 0.3674,0 0.7325,0.015 1.0982,0.015 h 0.9589 0.8373 c 0.1488,0.015 0.2971,0.016 0.4479,0.016 0.081,0 0.1814,0.015 0.2631,0.015 0.029,0.015 0.059,0.015 0.088,0.015 0,0 0.018,0 0.018,0 0.029,4e-4 0.018,0 0.059,0 0.08,0 0.159,0.016 0.2424,0.016 0.079,0.012 0.157,0.015 0.2364,0.03 h 0.2783 c 0.049,-0.012 0.1013,-0.014 0.1511,-0.015 0.8034,-0.3981 1.6262,-0.7656 2.5113,-0.9518 1.2115,-0.2116 2.4433,-0.2997 3.6737,-0.3769 1.9044,-0.065 3.8088,-0.1317 5.707,-0.2573 1.7532,-0.163 3.4958,-0.4016 5.2329,-0.6749 0.2536,-0.04 0.5088,-0.079 0.7626,-0.1176 0.018,0 0.02,-0.012 0.031,-0.012 0.1811,-0.039 0.3619,-0.061 0.5405,-0.071 1.5382,-0.2169 3.0938,-0.369 4.6549,-0.3034 2.4799,0.012 4.9567,0.028 7.4362,0.045 1.9691,0.012 3.9324,-0.04 5.8984,-0.1 1.8737,-0.047 3.75,-0.08 5.6215,-0.1784 2.1342,-0.094 4.2696,-0.2278 6.4071,-0.2127 2.053,3e-4 4.1021,0 6.1517,0 1.7489,3e-4 3.4981,0 5.2454,0 h 3.0659 c 0.7026,0 1.4036,0.012 2.1035,0.035 0.7338,0.024 1.4667,0.05 2.1959,0.1213 0.3073,0.031 0.5549,0.024 0.865,-0.044 0.1564,-0.014 0.3078,-0.021 0.4544,-0.02 -4.9071,-21.8172 -8.3908,-43.9109 -11.0396,-66.1168 -41.4676,-1.7776 -82.5197,-8.5475 -122.4616,-23.3239 -15.3706,-6.5335 -31.1894,-12.1042 -46.1124,-19.6013 -41.3347,-20.7652 -77.7703,-49.4173 -111.3775,-80.8364 -36.9099,-34.2845 -72.5559,-70.2348 -101.8944,-111.3608 -7.7141,-11.7273 -16.015,-23.09 -23.1394,-35.1817 -34.9848,-59.3625 -56.8083,-126.1826 -57.6978,-195.4437 -1.1284,-25.8545 -2.9624,-51.6674 -5.3455,-77.4374 -3.1509,-32.7263 -7.4413,-65.2537 -12.6732,-97.7176 -6.9045,-51.9787 -9.2497,-104.0855 -7.8637,-156.4985 0,-25.3404 0,-50.6807 -0.057,-76.0211 -0.049,-19.6009 -0.1306,-39.2019 -0.3475,-58.802 -0.2081,-16.3607 -0.3933,-32.7262 -1.1437,-49.0731 2.165,7.8499 0.9618,3.4355 0.8025,0.8469 -11.1555,-42.4104 -19.2215,-85.6823 -17.6706,-129.7255 -0.1275,-11.4846 -0.2561,-22.9714 -0.7465,-34.4474 -0.7327,-15.3649 -2.8197,-30.6291 -3.5793,-45.9956 -1.4522,-61.3008 6.6722,-121.0337 30.1833,-177.9626 25.4179,-57.8125 57.597,-111.5363 104.1425,-154.8952 -0.37,0.3365 -0.5811,0.5245 -0.6042,0.5357 v 0 0 0 c 0.018,-0.028 0.504,-0.5097 1.2799,-1.2553 -0.236,0.2335 -0.4304,0.4937 -0.6737,0.7204 0.033,-0.03 0.035,-0.029 0.07,-0.061 0.4634,-0.4221 2.0506,-1.9415 3.4042,-3.2293 -0.9066,0.8234 -1.8098,1.6506 -2.7081,2.4815 1.9881,-1.909 5.6826,-5.4158 7.9838,-7.6158 -0.3893,0.4048 -0.7669,0.8198 -1.1597,1.2224 11.6418,-11.186 34.64,-33.522 43.7868,-37.4396 0.083,-0.036 0.1578,-0.066 0.2271,-0.091 2.9201,-2.5291 5.8432,-5.0608 8.7687,-7.5853 32.8885,-25.5658 66.7624,-49.1961 104.4201,-67.3386 37.3615,-16.4613 75.3913,-30.3094 114.5729,-41.9444 28.2029,-7.1909 56.4509,-14.4306 85.0961,-19.6254 0.3201,-1.9532 0.6339,-3.9073 0.9422,-5.8617 5.3732,-23.9673 10.1566,-48.0723 16.0026,-71.9269 -0.1411,-0.4198 -0.2817,-0.8399 -0.4206,-1.2608 -0.094,0.016 -0.188,0.03 -0.2819,0.041 -0.436,0.054 -0.5854,-0.5104 -0.7682,-1.0104 -1.1409,0.2462 -2.3803,0.1857 -3.5338,0.031 -0.3821,-0.052 -0.2451,-0.7359 -0.31,-1.1167 -0.2069,-1.2005 -0.2446,-2.8995 -0.3024,-4.0779 -0.031,-1.5242 -0.068,-3.2266 -0.018,-4.7518 0.018,-0.4094 -0.1129,-0.8927 -0.1367,-1.3264 -0.8726,0.041 -1.7448,0.1345 -2.6199,0.1939 -1.2343,0.08 -2.4719,0.1251 -3.7118,0.1549 -1.1599,0.03 -2.3198,0.055 -3.4827,0.015 -1.1202,-0.095 -2.2345,-0.2589 -3.3527,-0.3754 -0.9043,-0.059 -1.7939,-0.1769 -2.6715,-0.3856 -0.7688,-0.2592 -1.5553,-0.4633 -2.3414,-0.6578 -0.8775,-0.2416 -1.7432,-0.5221 -2.6269,-0.7437 -0.099,-0.018 -0.1997,-0.038 -0.2962,-0.06 -0.5411,0.076 -1.3566,0.092 -2.4462,0.012 -0.062,0 -0.1272,-0.016 -0.1892,-0.016 -0.5546,-0.038 -1.1155,-0.038 -1.6749,-0.038 -0.8836,0.047 -1.7722,0.1087 -2.6629,0.089 -0.8917,-0.033 -1.7835,-0.077 -2.6715,-0.1791 -0.3731,-0.054 -0.7422,-0.115 -1.1084,-0.2018 -0.1448,0 -0.2988,0.012 -0.4617,0.012 h -0.4283 c -0.2985,-0.012 -0.5942,-0.059 -0.8852,-0.1251 -0.1786,-0.046 -0.3559,-0.08 -0.5386,-0.1038 -0.2076,0 -0.4139,0.012 -0.6192,0.012 -0.9253,0.026 -1.8487,0.03 -2.7731,0 -0.7167,-0.024 -1.4326,-0.071 -2.1487,-0.1175 -0.1307,-4e-4 -0.2604,0 -0.3918,0 -1.0689,-0.015 -2.1357,-0.016 -3.2045,-0.016 -0.7399,-0.017 -1.4804,0.017 -2.2186,-0.017 -0.3814,-0.012 -0.7571,-0.082 -1.1336,-0.1549 -0.3734,-0.081 -0.7418,-0.1728 -1.1119,-0.2621 -0.3062,-0.062 -0.6131,-0.1323 -0.9257,-0.1641 -0.2197,-0.015 -0.4389,-0.015 -0.6581,-0.015 -0.1966,0 -0.3883,0 -0.5828,0.015 -0.1316,0 -0.2578,0.028 -0.3835,0.056 -0.218,0.054 -0.4393,0.071 -0.6625,0.055 -0.2176,-0.012 -0.4334,-0.036 -0.6481,-0.068 -0.018,0 -0.033,0 -0.049,-0.012 v 0 0 7e-4 c -4e-4,0 0,0.012 0,0.016 -0.018,0.1623 -0.018,0.144 -0.018,0.3158 0.018,0.3305 0.095,0.6631 0.2526,0.9551 0.036,0.068 0.083,0.1304 0.1251,0.1955 0.2415,0.3188 0.5246,0.6339 0.8849,0.8266 0.3411,0.1814 0.504,0.191 0.9012,0.2878 0.2629,0.021 0.53,0.044 0.7945,0.065 3.0044,0.2461 2.9272,1.1337 -0.076,0.8478 -0.3127,-0.03 -0.6212,-0.061 -0.9317,-0.091 -0.2291,-0.06 -0.4676,-0.1038 -0.688,-0.183 -0.6744,-0.2369 -1.2044,-0.7411 -1.6134,-1.3108 -0.057,-0.096 -0.1217,-0.1879 -0.1747,-0.2877 -0.2098,-0.4058 -0.3124,-0.8633 -0.3277,-1.3187 0,-0.086 -1e-4,-0.1789 0,-0.2729 -0.071,0.021 -0.1485,0.028 -0.2245,0.016 -0.088,-0.012 -0.177,-0.019 -0.2642,-0.035 -0.1048,-0.015 -0.212,-0.015 -0.3151,-0.015 -0.1265,2e-4 -0.2565,0 -0.3828,0 -0.1605,0 -0.314,-8e-4 -0.4691,-0.016 -0.1487,-0.016 -0.2967,-0.033 -0.444,-0.055 -0.1221,-0.021 -0.2423,-0.029 -0.3632,-0.044 -0.1303,-0.014 -0.2608,-0.029 -0.3905,-0.029 -0.1174,-0.015 -0.2371,-0.014 -0.357,-0.015 -0.1155,6e-4 -0.2324,3e-4 -0.3455,0 -0.1322,-3e-4 -0.262,0 -0.3962,0 h -0.4546 -0.4059 c -0.1448,0 -0.2908,-0.012 -0.4345,-0.024 -0.099,0 -0.2032,-0.021 -0.3047,-0.021 -0.1359,0 -0.2701,0 -0.4014,0 -0.1288,0 -0.2576,-4e-4 -0.3871,-0.016 -0.062,-0.012 -0.1206,-0.015 -0.1811,-0.026 -0.018,0.012 -0.029,0.012 -0.046,0.012 h -0.042 -0.1202 c -0.024,0 -0.049,0 -0.075,0 0.029,2e-4 0.066,0.017 0.097,0.017 0.064,0.014 0.1305,0.03 0.1959,0.045 0.1116,0.028 0.2232,0.057 0.3369,0.082 0.02,0.015 0.029,0.016 0.048,0.016 h 0.048 v -0.026 c 0.1161,0.014 0.1782,0.033 0.1862,0.049 v 0 0 0 0 7e-4 0 0 0 0 0 7e-4 c -0.018,0.014 -0.082,0.023 -0.2024,0.016 h -0.066 -0.033 c -0.1116,-0.026 -0.2248,-0.055 -0.3385,-0.082 -0.064,-0.016 -0.1261,-0.03 -0.193,-0.045 -0.028,0 -0.066,-0.017 -0.094,-0.017 -0.08,-0.012 -0.1606,-0.023 -0.2408,-0.038 -0.082,-0.017 -0.1675,-0.017 -0.251,-0.017 -0.098,0 -0.1901,0 -0.284,0 -0.071,-5e-4 -0.1414,0 -0.2138,0 h -0.082 c -0.022,-0.015 -0.033,-0.016 -0.057,-0.016 -0.018,0 -0.029,0 -0.042,-0.012 -0.022,0 -0.044,0 -0.068,0 h -0.1704 -0.1199 -0.1299 -0.1188 -0.1471 -0.1284 c -0.053,0 -0.1068,4e-4 -0.1598,0 -0.066,0 -0.1306,7e-4 -0.1982,0 h -0.1305 c -0.018,-2e-4 -0.018,2e-4 -0.018,0 v 0 c -0.018,0 -0.033,0 -0.046,0 -0.018,3e-4 -0.029,4e-4 -0.044,0 -0.031,0 -0.06,-3e-4 -0.091,0 h -0.098 -0.1346 -0.093 c -0.041,0 -0.081,0 -0.1206,0 -0.033,7e-4 -0.066,7e-4 -0.099,0 h -0.06 -0.037 c -0.018,0.012 -0.06,0.02 -0.1377,0.021 h -0.02 v 7e-4 0 0 0 0 0 0 0 8e-4 h -0.02 c -0.018,0 -0.02,0 -0.035,0 -0.018,3e-4 -0.036,-7e-4 -0.055,-8e-4 h -0.091 c -0.029,0 -0.062,-0.016 -0.096,-0.016 -0.018,0 -0.02,-0.014 -0.033,-0.016 v -7e-4 c 0,0 -0.018,0.012 -0.02,0.012 v 0 0 0 0 h -0.018 v 0 0 c 0,-10e-5 -0.018,4e-4 -0.018,0 v 0 c 0,2e-4 -0.018,-4e-4 -0.018,0 v 0 h -0.025 v 0 0 0 0 0 0 0 -7e-4 0 0 0 h -0.018 v 0 l -0.02,-0.016 z m 0.271,0 z m 64.0051,3.5341 c 0,0.065 0.022,0.2308 0.075,0.3152 -0.025,-0.1051 -0.052,-0.21 -0.075,-0.3152 z" />
  </g>
</svg>
